<svg class="main-svg" xmlns="http://www.w3.org/2000/svg" xmlns:xlink="http://www.w3.org/1999/xlink" width="700" height="500" style="" viewBox="0 0 700 500"><rect x="0" y="0" width="700" height="500" style="fill: rgb(255, 255, 255); fill-opacity: 1;"/><defs id="defs-d88ed4"><g class="clips"><clipPath id="clipd88ed4xyplot" class="plotclip"><rect width="444" height="360"/></clipPath><clipPath class="axesclip" id="clipd88ed4x"><rect x="80" y="0" width="444" height="500"/></clipPath><clipPath class="axesclip" id="clipd88ed4y"><rect x="0" y="60" width="700" height="360"/></clipPath><clipPath class="axesclip" id="clipd88ed4xy"><rect x="80" y="60" width="444" height="360"/></clipPath></g><g class="gradients"><linearGradient x1="0" y1="1" x2="0" y2="0" gradientUnits="objectBoundingBox" id="gd88ed4-cbcoloraxis"><stop offset="0%" stop-color="rgb(121, 130, 52)" stop-opacity="1"/><stop offset="16.666667%" stop-color="rgb(163, 173, 98)" stop-opacity="1"/><stop offset="33.333333%" stop-color="rgb(208, 211, 162)" stop-opacity="1"/><stop offset="50%" stop-color="rgb(253, 251, 228)" stop-opacity="1"/><stop offset="66.666667%" stop-color="rgb(240, 198, 195)" stop-opacity="1"/><stop offset="83.333333%" stop-color="rgb(223, 145, 163)" stop-opacity="1"/><stop offset="100%" stop-color="rgb(212, 103, 128)" stop-opacity="1"/></linearGradient></g><g class="patterns"/></defs><g class="bglayer"/><g class="layer-below"><g class="imagelayer"/><g class="shapelayer"/></g><g class="cartesianlayer"><g class="subplot xy"><g class="layer-subplot"><g class="shapelayer"/><g class="imagelayer"/></g><g class="minor-gridlayer"><g class="x"/><g class="y"/></g><g class="gridlayer"><g class="x"><path class="xgrid crisp" transform="translate(149.63,0)" d="M0,60v360" style="stroke: rgb(238, 238, 238); stroke-opacity: 1; stroke-width: 1px;"/><path class="xgrid crisp" transform="translate(219.39,0)" d="M0,60v360" style="stroke: rgb(238, 238, 238); stroke-opacity: 1; stroke-width: 1px;"/><path class="xgrid crisp" transform="translate(289.15,0)" d="M0,60v360" style="stroke: rgb(238, 238, 238); stroke-opacity: 1; stroke-width: 1px;"/><path class="xgrid crisp" transform="translate(358.9,0)" d="M0,60v360" style="stroke: rgb(238, 238, 238); stroke-opacity: 1; stroke-width: 1px;"/><path class="xgrid crisp" transform="translate(428.66,0)" d="M0,60v360" style="stroke: rgb(238, 238, 238); stroke-opacity: 1; stroke-width: 1px;"/><path class="xgrid crisp" transform="translate(498.42,0)" d="M0,60v360" style="stroke: rgb(238, 238, 238); stroke-opacity: 1; stroke-width: 1px;"/></g><g class="y"><path class="ygrid crisp" transform="translate(0,416.15)" d="M80,0h444" style="stroke: rgb(238, 238, 238); stroke-opacity: 1; stroke-width: 1px;"/><path class="ygrid crisp" transform="translate(0,375.77)" d="M80,0h444" style="stroke: rgb(238, 238, 238); stroke-opacity: 1; stroke-width: 1px;"/><path class="ygrid crisp" transform="translate(0,335.39)" d="M80,0h444" style="stroke: rgb(238, 238, 238); stroke-opacity: 1; stroke-width: 1px;"/><path class="ygrid crisp" transform="translate(0,295)" d="M80,0h444" style="stroke: rgb(238, 238, 238); stroke-opacity: 1; stroke-width: 1px;"/><path class="ygrid crisp" transform="translate(0,254.62)" d="M80,0h444" style="stroke: rgb(238, 238, 238); stroke-opacity: 1; stroke-width: 1px;"/><path class="ygrid crisp" transform="translate(0,214.24)" d="M80,0h444" style="stroke: rgb(238, 238, 238); stroke-opacity: 1; stroke-width: 1px;"/><path class="ygrid crisp" transform="translate(0,173.86)" d="M80,0h444" style="stroke: rgb(238, 238, 238); stroke-opacity: 1; stroke-width: 1px;"/><path class="ygrid crisp" transform="translate(0,133.48000000000002)" d="M80,0h444" style="stroke: rgb(238, 238, 238); stroke-opacity: 1; stroke-width: 1px;"/><path class="ygrid crisp" transform="translate(0,93.1)" d="M80,0h444" style="stroke: rgb(238, 238, 238); stroke-opacity: 1; stroke-width: 1px;"/></g></g><g class="zerolinelayer"/><g class="layer-between"><g class="shapelayer"/><g class="imagelayer"/></g><path class="xlines-below"/><path class="ylines-below"/><g class="overlines-below"/><g class="xaxislayer-below"/><g class="yaxislayer-below"/><g class="overaxes-below"/><g class="overplot"><g class="xy" transform="translate(80,60)" clip-path="url(#clipd88ed4xyplot)"><g class="scatterlayer mlayer"><g class="trace scatter trace64bc51" style="stroke-miterlimit: 2; opacity: 1;"><g class="fills"/><g class="errorbars"/><g class="lines"/><g class="points"><path class="point" transform="translate(69.63,294.57)" d="M42.43,0A42.43,42.43 0 1,1 0,-42.43A42.43,42.43 0 0,1 42.43,0Z" style="opacity: 0.7; stroke-width: 1px; fill: rgb(142, 152, 76); fill-opacity: 1; stroke: rgb(255, 255, 255); stroke-opacity: 1;"/><path class="point" transform="translate(139.39,170.8)" d="M41.99,0A41.99,41.99 0 1,1 0,-41.99A41.99,41.99 0 0,1 41.99,0Z" style="opacity: 0.7; stroke-width: 1px; fill: rgb(250, 240, 221); fill-opacity: 1; stroke: rgb(255, 255, 255); stroke-opacity: 1;"/><path class="point" transform="translate(209.15,42.79)" d="M22.18,0A22.18,22.18 0 1,1 0,-22.18A22.18,22.18 0 0,1 22.18,0Z" style="opacity: 0.7; stroke-width: 1px; fill: rgb(212, 103, 128); fill-opacity: 1; stroke: rgb(255, 255, 255); stroke-opacity: 1;"/><path class="point" transform="translate(278.9,301.03)" d="M16.1,0A16.1,16.1 0 1,1 0,-16.1A16.1,16.1 0 0,1 16.1,0Z" style="opacity: 0.7; stroke-width: 1px; fill: rgb(137, 146, 69); fill-opacity: 1; stroke: rgb(255, 255, 255); stroke-opacity: 1;"/><path class="point" transform="translate(348.66,318.03)" d="M3.95,0A3.95,3.95 0 1,1 0,-3.95A3.95,3.95 0 0,1 3.95,0Z" style="opacity: 0.7; stroke-width: 1px; fill: rgb(121, 130, 52); fill-opacity: 1; stroke: rgb(255, 255, 255); stroke-opacity: 1;"/><path class="point" transform="translate(418.42,297.59)" d="M3.03,0A3.03,3.03 0 1,1 0,-3.03A3.03,3.03 0 0,1 3.03,0Z" style="opacity: 0.7; stroke-width: 1px; fill: rgb(140, 149, 72); fill-opacity: 1; stroke: rgb(255, 255, 255); stroke-opacity: 1;"/></g><g class="text"/></g></g></g></g><g class="zerolinelayer-above"/><path class="xlines-above crisp" d="M0,0" style="fill: none;"/><path class="ylines-above crisp" d="M0,0" style="fill: none;"/><g class="overlines-above"/><g class="xaxislayer-above"><g class="xtick"><text text-anchor="start" x="0" y="437" transform="translate(149.63,0) rotate(29.999999999999996,0,429)" style="font-family: 'Helvetica Neue', Helvetica, sans-serif; font-size: 16px; fill: rgb(51, 51, 51); fill-opacity: 1; white-space: pre;">Data / Data Mining Analyst</text></g><g class="xtick"><text text-anchor="start" x="0" y="437" transform="translate(219.39,0) rotate(29.999999999999996,0,429)" style="font-family: 'Helvetica Neue', Helvetica, sans-serif; font-size: 16px; fill: rgb(51, 51, 51); fill-opacity: 1; white-space: pre;">Business Intelligence Analyst</text></g><g class="xtick"><text text-anchor="start" x="0" y="437" transform="translate(289.15,0) rotate(29.999999999999996,0,429)" style="font-family: 'Helvetica Neue', Helvetica, sans-serif; font-size: 16px; fill: rgb(51, 51, 51); fill-opacity: 1; white-space: pre;">Computer Systems Engineer / Architect</text></g><g class="xtick"><text text-anchor="start" x="0" y="437" transform="translate(358.9,0) rotate(29.999999999999996,0,429)" style="font-family: 'Helvetica Neue', Helvetica, sans-serif; font-size: 16px; fill: rgb(51, 51, 51); fill-opacity: 1; white-space: pre;">Business / Management Analyst</text></g><g class="xtick"><text text-anchor="start" x="0" y="437" transform="translate(428.66,0) rotate(29.999999999999996,0,429)" style="font-family: 'Helvetica Neue', Helvetica, sans-serif; font-size: 16px; fill: rgb(51, 51, 51); fill-opacity: 1; white-space: pre;">Clinical Analyst / Clinical Documentation and Improvement Specialist</text></g><g class="xtick"><text text-anchor="start" x="0" y="437" transform="translate(498.42,0) rotate(29.999999999999996,0,429)" style="font-family: 'Helvetica Neue', Helvetica, sans-serif; font-size: 16px; fill: rgb(51, 51, 51); fill-opacity: 1; white-space: pre;">Market Research Analyst</text></g></g><g class="yaxislayer-above"><g class="ytick"><text text-anchor="end" x="79" y="5.6" transform="translate(0,416.15)" style="font-family: 'Helvetica Neue', Helvetica, sans-serif; font-size: 16px; fill: rgb(51, 51, 51); fill-opacity: 1; white-space: pre;">80k</text></g><g class="ytick"><text text-anchor="end" x="79" y="5.6" style="font-family: 'Helvetica Neue', Helvetica, sans-serif; font-size: 16px; fill: rgb(51, 51, 51); fill-opacity: 1; white-space: pre;" transform="translate(0,375.77)">90k</text></g><g class="ytick"><text text-anchor="end" x="79" y="5.6" style="font-family: 'Helvetica Neue', Helvetica, sans-serif; font-size: 16px; fill: rgb(51, 51, 51); fill-opacity: 1; white-space: pre;" transform="translate(0,335.39)">100k</text></g><g class="ytick"><text text-anchor="end" x="79" y="5.6" style="font-family: 'Helvetica Neue', Helvetica, sans-serif; font-size: 16px; fill: rgb(51, 51, 51); fill-opacity: 1; white-space: pre;" transform="translate(0,295)">110k</text></g><g class="ytick"><text text-anchor="end" x="79" y="5.6" style="font-family: 'Helvetica Neue', Helvetica, sans-serif; font-size: 16px; fill: rgb(51, 51, 51); fill-opacity: 1; white-space: pre;" transform="translate(0,254.62)">120k</text></g><g class="ytick"><text text-anchor="end" x="79" y="5.6" style="font-family: 'Helvetica Neue', Helvetica, sans-serif; font-size: 16px; fill: rgb(51, 51, 51); fill-opacity: 1; white-space: pre;" transform="translate(0,214.24)">130k</text></g><g class="ytick"><text text-anchor="end" x="79" y="5.6" style="font-family: 'Helvetica Neue', Helvetica, sans-serif; font-size: 16px; fill: rgb(51, 51, 51); fill-opacity: 1; white-space: pre;" transform="translate(0,173.86)">140k</text></g><g class="ytick"><text text-anchor="end" x="79" y="5.6" style="font-family: 'Helvetica Neue', Helvetica, sans-serif; font-size: 16px; fill: rgb(51, 51, 51); fill-opacity: 1; white-space: pre;" transform="translate(0,133.48000000000002)">150k</text></g><g class="ytick"><text text-anchor="end" x="79" y="5.6" style="font-family: 'Helvetica Neue', Helvetica, sans-serif; font-size: 16px; fill: rgb(51, 51, 51); fill-opacity: 1; white-space: pre;" transform="translate(0,93.1)">160k</text></g></g><g class="overaxes-above"/></g></g><g class="polarlayer"/><g class="smithlayer"/><g class="ternarylayer"/><g class="geolayer"/><g class="funnelarealayer"/><g class="pielayer"/><g class="iciclelayer"/><g class="treemaplayer"/><g class="sunburstlayer"/><g class="glimages"/><defs id="topdefs-d88ed4"><g class="clips"/></defs><g class="layer-above"><g class="imagelayer"/><g class="shapelayer"/></g><g class="infolayer"><g class="cbcoloraxis colorbar" transform="translate(80,60)"><rect class="cbbg" x="452.5" y="0" width="154.7080078125" height="361" style="fill: rgb(0, 0, 0); fill-opacity: 0; stroke: rgb(68, 68, 68); stroke-opacity: 1; stroke-width: 0;"/><g class="cbfills" transform="translate(0,37)"><rect class="cbfill gradient_filled" style="fill: url('#gd88ed4-cbcoloraxis');" x="463" y="0" width="30" height="313"/></g><g class="cblines" transform="translate(0,37)"/><g class="cbaxis crisp" transform="translate(0,-60)"><g class="ycbcoloraxistick"><text text-anchor="start" x="497.2" y="5.6" transform="translate(0,407.43)" style="font-family: 'Helvetica Neue', Helvetica, sans-serif; font-size: 16px; fill: rgb(51, 51, 51); fill-opacity: 1; white-space: pre;">90k</text></g><g class="ycbcoloraxistick"><text text-anchor="start" x="497.2" y="5.6" style="font-family: 'Helvetica Neue', Helvetica, sans-serif; font-size: 16px; fill: rgb(51, 51, 51); fill-opacity: 1; white-space: pre;" transform="translate(0,361.51)">100k</text></g><g class="ycbcoloraxistick"><text text-anchor="start" x="497.2" y="5.6" style="font-family: 'Helvetica Neue', Helvetica, sans-serif; font-size: 16px; fill: rgb(51, 51, 51); fill-opacity: 1; white-space: pre;" transform="translate(0,315.59)">110k</text></g><g class="ycbcoloraxistick"><text text-anchor="start" x="497.2" y="5.6" style="font-family: 'Helvetica Neue', Helvetica, sans-serif; font-size: 16px; fill: rgb(51, 51, 51); fill-opacity: 1; white-space: pre;" transform="translate(0,269.65999999999997)">120k</text></g><g class="ycbcoloraxistick"><text text-anchor="start" x="497.2" y="5.6" style="font-family: 'Helvetica Neue', Helvetica, sans-serif; font-size: 16px; fill: rgb(51, 51, 51); fill-opacity: 1; white-space: pre;" transform="translate(0,223.73999999999998)">130k</text></g><g class="ycbcoloraxistick"><text text-anchor="start" x="497.2" y="5.6" style="font-family: 'Helvetica Neue', Helvetica, sans-serif; font-size: 16px; fill: rgb(51, 51, 51); fill-opacity: 1; white-space: pre;" transform="translate(0,177.82)">140k</text></g><g class="ycbcoloraxistick"><text text-anchor="start" x="497.2" y="5.6" style="font-family: 'Helvetica Neue', Helvetica, sans-serif; font-size: 16px; fill: rgb(51, 51, 51); fill-opacity: 1; white-space: pre;" transform="translate(0,131.89999999999998)">150k</text></g></g><g class="cbtitleunshift" transform="translate(-80,-60)"><g class="cbtitle" transform="translate(-0.5,-0.5)"><text class="ycbcoloraxistitle" x="542.88" y="87.25" text-anchor="start" style="opacity: 1; font-family: 'Helvetica Neue', Helvetica, sans-serif; font-size: 19px; fill: rgb(51, 51, 51); fill-opacity: 1; white-space: pre;">Median Salary</text></g></g><rect class="cboutline" x="463" y="37" width="30" height="313" style="stroke: rgb(68, 68, 68); stroke-opacity: 1; fill: none; stroke-width: 1;"/></g><g class="g-gtitle"/><g class="g-xtitle" transform="translate(0,9)"><text class="xtitle" x="302" y="487" text-anchor="middle" style="opacity: 1; font-family: 'Helvetica Neue', Helvetica, sans-serif; font-size: 19px; fill: rgb(51, 51, 51); fill-opacity: 1; white-space: pre;">ONET Occupation</text></g><g class="g-ytitle"><text class="ytitle" transform="rotate(-90,32,240)" x="32" y="240" text-anchor="middle" style="opacity: 1; font-family: 'Helvetica Neue', Helvetica, sans-serif; font-size: 19px; fill: rgb(51, 51, 51); fill-opacity: 1; white-space: pre;">Median Salary</text></g></g></svg>